<svg  xmlns="http://www.w3.org/2000/svg" viewBox="0 0 815.27 657.27">
    <!-- K -->
    <path fill="#4D322B" d="M441.83,248.5l28.26,34.28h-2.84q-37.2,0-74.4,0a5.64,5.64,0,0,1-4.94-2.5c-4-5.17-28.06-33.73-29.82-35.39-1.54-1.44-.93-2.65.13-3.69,3.26-3.19,207.35-177,212.18-180.39,5.51-3.85,7.43-9.4,7.91-15.41.87-10.87-4.54-18.89-12.72-25.46a61.3,61.3,0,0,0-17.06-9.35c-2.59-1-4.18-3.45-3.75-5.49a5.94,5.94,0,0,1,5.76-5c.66,0,200.66-.14,246.9,0a27.11,27.11,0,0,1,9.72,2.05c3.27,1.51,6.86,3.7,7.93,8.2.54,2.25-.09,3.41-2.3,3.78-6.59,1.09-13.33,1.64-19.73,3.43a284,284,0,0,0-29.62,9.86c-14.55,5.86-29.11,11.86-43.08,19-14.78,7.5-28.9,16.32-43.29,24.6-8.34,4.79-16.72,9.52-24.94,14.51-11.21,6.8-22.38,13.68-33.41,20.76-12.75,8.2-25.49,16.44-38,25.07-7,4.88-13.58,10.49-20.24,15.91s-13.26,11-19.82,16.54c-4.52,3.85-8.9,7.85-13.41,11.72-7.08,6.07-14.23,12.07-21.32,18.13-6.69,5.72-13.33,11.5-20,17.22-5.87,5-11.78,10-17.65,15-5.33,4.55-10.61,9.16-15.94,13.7-3,2.55-6.08,5-9.1,7.54C442.78,247.41,442.4,247.91,441.83,248.5Z"/>
    <path fill="#4D322B" d="M589.79,657.27c-4.43-5.29-228-277.86-230.66-281,.86-.25,47.9,0,70.51.1a3.83,3.83,0,0,1,3.05.91c3.23,3.61,235.6,277.59,237.77,280Z"/>
    <path fill="#4D322B" d="M707,657.27c-1.37-2-235.52-279.9-236.45-281.15,1.42,0,50.19.08,73.62-.1,3.1,0,4.88,1.32,6.59,3.35,5.59,6.66,195.46,229,203.37,236.42a251.76,251.76,0,0,0,30.83,25.08c5.61,3.81,10.83,8.19,16.24,12.3,1.83,1.39,3.7,2.73,5.55,4.1Z"/>
    <path fill="#4D322B" d="M3.82,657.27c-1.9-3-1.47-4,1.85-5.47q16.21-7,32.38-14.06c7.58-3.34,15.2-6.6,22.62-10.26,11.85-5.85,23.38-12.36,33.93-20.36,7.2-5.47,14.12-11.31,21-17.18,3.91-3.34,5.59-7.53,5.59-13q-.21-242.74-.15-485.51c0-11.12-4.22-20.26-13.54-26.91C100.15,58.61,92.71,53,85,47.62,72.1,39.94,59,32.88,45.4,26.4,36.09,22.34,26.89,18,17.62,13.92c-5-2.2-10-4.22-15-6.38A22.39,22.39,0,0,1,0,6V3.81C2,1,4.69,0,8.23,0c57.69.09,175.41.06,177,.06,0,1.34.05,655.84.07,657.21Z"/>
    <!-- H -->
    <path fill="#805846" d="M749.45,110.39c-1.3,3.68-2.79,7.31-3.85,11.06-2.33,8.27-4.42,16.6-6.65,24.9s-2.67,17-2.69,25.7c0,19-.22,322.22-.31,323.76-3.88-2.81-38.81-29.14-43.08-32.73-1-.85-1.41-2.57-1.82-4-.26-.92-.13-301-.31-307.33a4.08,4.08,0,0,1,2.17-3.93c16.3-11,53.5-36.3,55.85-37.92Z"/>
    <path fill="#805846" d="M232.75,657.27c.05-1.36.15-655.33.15-657.13,1.08,0,120.36,0,179-.08,2.92,0,4.36,1.62,5.67,3.43,1,1.35.34,3-1.37,3.75-8.48,3.57-17,7-25.47,10.65-5.41,2.33-10.71,4.92-16,7.43-6.64,3.11-13.32,6.15-19.89,9.41a217.16,217.16,0,0,0-37.06,23.68c-4.25,3.33-8.17,7.06-12.27,10.57-5.25,4.49-7.17,10.57-8,17.07A91.09,91.09,0,0,0,297,97.38c0,65.58,0,199.25,0,200.69H623.19c0-1.09,0-68.21,0-100.64,0-1.55.1-2.72,1.71-3.8,14.29-9.56,28.47-19.26,42.69-28.93.22-.14.46-.24.9-.47v281c-3.19-2.37-6.28-4.64-9.35-6.95q-17.31-13-34.6-26a4.32,4.32,0,0,1-1.93-3.86c.08-15.08,0-47.4,0-48.71H296.38c0,1,0,147,0,219,0,4.44,2.51,7.62,5.31,10.49,10.67,11,23.14,19.58,36.14,27.47,5.58,3.39,11.31,6.57,17.1,9.6,4.43,2.32,9.06,4.28,13.62,6.35,5.2,2.36,10.41,4.71,15.64,7q14.15,6.17,28.32,12.22c3.15,1.33,3.52,2.2,1.78,5.37Z"/>

</svg>
